<?xml version="1.0" encoding="utf-8"?>
<!-- Generator: Adobe Illustrator 19.0.0, SVG Export Plug-In . SVG Version: 6.00 Build 0)  -->
<svg version="1.1" id="图层_1" xmlns="http://www.w3.org/2000/svg" xmlns:xlink="http://www.w3.org/1999/xlink" x="0px" y="0px"
	 viewBox="-431 433 96 96" style="enable-background:new -431 433 96 96;" xml:space="preserve">
<style type="text/css">
	.st0{opacity:1.0;fill:none;stroke:#231F20;stroke-width:6;stroke-linecap:round;stroke-miterlimit:10;enable-background:new    ;}
	.st1{fill:none;stroke:#FFFFFF;stroke-width:2;stroke-linecap:round;stroke-miterlimit:10;}
	.st2{enable-background:new    ;}
	.st3{fill:none;stroke:#FFFFFF;stroke-width:1;stroke-miterlimit:10;}
</style>
<path class="st0" d="M-359.3,498h-47.4c-2.4,0-4.3-1.9-4.3-4.3v-29.4c0-2.4,1.9-4.3,4.3-4.3h47.5c2.4,0,4.3,1.9,4.3,4.3v29.5
	C-355,496.1-356.9,498-359.3,498z"/>
<path class="st0" d="M-397,504l8.1-2.2c4.5-1.2,9.3-1.2,13.8,0l8.1,2.2"/>
<line class="st0" x1="-382" y1="501" x2="-382" y2="498"/>
<path class="st1" d="M-359.3,498h-47.4c-2.4,0-4.3-1.9-4.3-4.3v-29.4c0-2.4,1.9-4.3,4.3-4.3h47.5c2.4,0,4.3,1.9,4.3,4.3v29.5
	C-355,496.1-356.9,498-359.3,498z"/>
<path class="st1" d="M-397,504l8.1-2.2c4.5-1.2,9.3-1.2,13.8,0l8.1,2.2"/>
<line class="st1" x1="-382" y1="501" x2="-382" y2="498"/>
<g class="st2">
	<path class="st3" d="M-392.6,484.3c0,0.5-0.4,0.7-1.1,0.7c-0.8,0-1.1-0.2-1.1-0.7v-9.7h-0.9c-0.2,0-0.4-0.1-0.5-0.2
		c-0.1-0.1-0.1-0.4-0.1-0.9c0-0.4,0.1-0.7,0.2-0.9s0.3-0.3,0.5-0.3h1.8c0.8,0,1.2,0.3,1.2,0.9V484.3z"/>
	<path class="st3" d="M-380.2,483.8c0,0.7-0.2,1-0.6,1h-6.6c-0.2,0-0.4-0.1-0.5-0.4c-0.2-0.3-0.2-0.6-0.2-1c0-0.2,0-0.4,0.1-0.6
		c0.1-0.2,0.1-0.4,0.3-0.6c0.1-0.1,0.2-0.3,0.5-0.5c0.3-0.2,0.6-0.5,1-0.9c0.4-0.3,0.8-0.7,1.2-1.1s0.8-0.8,1.1-1.3
		c0.3-0.5,0.6-0.9,0.9-1.4c0.2-0.5,0.3-0.9,0.3-1.4c0-0.4-0.1-0.8-0.4-1.1c-0.3-0.3-0.6-0.4-1-0.4c-0.5,0-0.8,0.2-1.1,0.5
		c-0.2,0.3-0.4,0.8-0.4,1.3c0,0.4-0.1,0.7-0.2,0.8c-0.2,0.2-0.4,0.2-0.9,0.2c-0.5,0-0.8-0.1-1-0.2c-0.2-0.1-0.3-0.4-0.3-0.8
		c0-1.2,0.3-2.1,1-2.8c0.6-0.7,1.6-1,3-1c1.1,0,2,0.3,2.6,1c0.6,0.6,0.9,1.5,0.9,2.5c0,0.4-0.1,0.8-0.2,1.3
		c-0.1,0.4-0.3,0.8-0.6,1.3c-0.2,0.4-0.5,0.8-0.8,1.2c-0.3,0.4-0.6,0.8-0.9,1.1c-0.4,0.4-0.8,0.8-1.2,1.2c-0.4,0.4-0.8,0.8-1.3,1.1
		h4.5C-380.4,482.8-380.2,483.1-380.2,483.8z"/>
	<path class="st3" d="M-371.7,478.3c0.4,0,0.7,0.1,1.1,0.3c0.4,0.1,0.7,0.3,0.9,0.6c0.3,0.3,0.5,0.6,0.7,0.9
		c0.2,0.4,0.3,0.8,0.3,1.3c0,0.6-0.1,1.1-0.3,1.6c-0.2,0.5-0.5,0.9-0.8,1.2c-0.4,0.3-0.8,0.6-1.3,0.7s-1.1,0.3-1.7,0.3
		c-0.7,0-1.3-0.1-1.8-0.4c-0.5-0.2-0.9-0.5-1.2-0.9c-0.3-0.3-0.5-0.7-0.7-1.1c-0.1-0.4-0.2-0.7-0.2-1c0-0.3,0.1-0.6,0.3-0.7
		c0.2-0.2,0.4-0.3,0.7-0.3c0.1,0,0.2,0,0.3,0c0.1,0,0.2,0.1,0.3,0.2c0.1,0.1,0.2,0.2,0.3,0.3c0.1,0.1,0.1,0.3,0.1,0.4
		c0,0.1,0.1,0.3,0.1,0.5c0.1,0.2,0.2,0.3,0.3,0.5c0.1,0.2,0.3,0.3,0.6,0.4c0.2,0.1,0.5,0.2,0.9,0.2c0.3,0,0.5-0.1,0.7-0.2
		c0.2-0.1,0.4-0.2,0.6-0.4s0.3-0.4,0.4-0.6c0.1-0.2,0.1-0.5,0.1-0.7c0-0.3-0.1-0.6-0.2-0.8c-0.1-0.2-0.3-0.4-0.5-0.6
		c-0.2-0.1-0.5-0.2-0.7-0.3c-0.3-0.1-0.5-0.1-0.8-0.1c-0.3,0-0.5-0.1-0.8-0.3c-0.2-0.2-0.3-0.5-0.3-0.9c0-0.3,0.1-0.5,0.3-0.7
		c0.2-0.2,0.4-0.3,0.7-0.3c0.2,0,0.4,0,0.6-0.1c0.2-0.1,0.4-0.2,0.6-0.4s0.3-0.3,0.4-0.6c0.1-0.2,0.1-0.4,0.1-0.6
		c0-0.5-0.1-0.8-0.4-1.1c-0.3-0.3-0.6-0.4-0.9-0.4c-0.4,0-0.8,0.1-1,0.4s-0.4,0.7-0.4,1.1c0,0.2-0.1,0.4-0.3,0.6
		c-0.2,0.2-0.5,0.3-0.9,0.3c-0.3,0-0.5-0.1-0.6-0.3c-0.2-0.2-0.3-0.4-0.3-0.8c0-0.5,0.1-0.9,0.3-1.3c0.2-0.4,0.4-0.7,0.7-1
		c0.3-0.3,0.7-0.5,1.1-0.6c0.4-0.2,0.9-0.2,1.3-0.2c0.5,0,0.9,0.1,1.3,0.2s0.8,0.3,1.1,0.6s0.6,0.6,0.8,1c0.2,0.4,0.3,0.8,0.3,1.4
		c0,0.4-0.1,0.8-0.2,1.1s-0.3,0.6-0.5,0.9s-0.4,0.5-0.7,0.6C-371.2,478-371.4,478.1-371.7,478.3z"/>
</g>
</svg>
