<?xml version="1.0" encoding="utf-8"?>
<!-- Generator: Adobe Illustrator 19.0.0, SVG Export Plug-In . SVG Version: 6.00 Build 0)  -->
<svg version="1.1" id="图层_1" xmlns="http://www.w3.org/2000/svg" xmlns:xlink="http://www.w3.org/1999/xlink" x="0px" y="0px"
	 viewBox="0 0 96 96" style="enable-background:new 0 0 96 96;" xml:space="preserve">
<style type="text/css">
	.st0{opacity:0.7;}
	.st1{fill:none;stroke:#000000;stroke-width:6;stroke-linecap:round;stroke-miterlimit:10;}
	.st2{fill:none;stroke:#FFFFFF;stroke-width:2;stroke-linecap:round;stroke-miterlimit:10;}
</style>
<g class="st0">
	<path class="st1" d="M75.3,28H20.7c-2,0-3.7,1.7-3.7,3.7v34.6c0,2,1.7,3.7,3.7,3.7h54.6c2,0,3.7-1.7,3.7-3.7V31.7
		C79,29.7,77.3,28,75.3,28z"/>
	<polyline class="st1" points="17,64 40,44 52,56 58,48 79,66 	"/>
	<circle class="st1" cx="67" cy="39" r="5"/>
</g>
<g>
	<path class="st2" d="M75.3,28H20.7c-2,0-3.7,1.7-3.7,3.7v34.6c0,2,1.7,3.7,3.7,3.7h54.6c2,0,3.7-1.7,3.7-3.7V31.7
		C79,29.7,77.3,28,75.3,28z"/>
	<polyline class="st2" points="17,64 40,44 52,56 58,48 79,66 	"/>
	<circle class="st2" cx="67" cy="39" r="5"/>
</g>
</svg>
