<?xml version="1.0" encoding="utf-8"?>
<!-- Generator: Adobe Illustrator 19.0.0, SVG Export Plug-In . SVG Version: 6.00 Build 0)  -->
<svg version="1.1" id="图层_1" xmlns="http://www.w3.org/2000/svg" xmlns:xlink="http://www.w3.org/1999/xlink" x="0px" y="0px"
	 viewBox="0 0 96 96" style="enable-background:new 0 0 96 96;" xml:space="preserve">
<style type="text/css">
	.st0{opacity:0.7;}
	.st1{fill:none;stroke:#000000;stroke-width:6;stroke-linecap:round;stroke-linejoin:round;stroke-miterlimit:10;}
	.st2{fill:none;stroke:#FFFFFF;stroke-width:1.5;stroke-linecap:round;stroke-linejoin:round;stroke-miterlimit:10;}
</style>
<g class="st0">
	<g>
		<line class="st1" x1="57.3" y1="57.1" x2="72.7" y2="72.5"/>
		<polyline class="st1" points="72.7,58.7 72.7,72.5 58.9,72.5 		"/>
	</g>
	<g>
		<line class="st1" x1="39.5" y1="39.3" x2="24.1" y2="23.9"/>
		<polyline class="st1" points="24.1,37.6 24.1,23.9 37.9,23.9 		"/>
	</g>
	<g>
		<line class="st1" x1="57.3" y1="39.3" x2="72.7" y2="23.9"/>
		<polyline class="st1" points="58.9,23.9 72.7,23.9 72.7,37.6 		"/>
	</g>
	<g>
		<line class="st1" x1="39.5" y1="57.1" x2="24.1" y2="72.5"/>
		<polyline class="st1" points="37.9,72.5 24.1,72.5 24.1,58.7 		"/>
	</g>
</g>
<g>
	<g>
		<line class="st2" x1="57.3" y1="57.1" x2="72.7" y2="72.5"/>
		<polyline class="st2" points="72.7,58.7 72.7,72.5 58.9,72.5 		"/>
	</g>
	<g>
		<line class="st2" x1="39.5" y1="39.3" x2="24.1" y2="23.9"/>
		<polyline class="st2" points="24.1,37.6 24.1,23.9 37.9,23.9 		"/>
	</g>
	<g>
		<line class="st2" x1="57.3" y1="39.3" x2="72.7" y2="23.9"/>
		<polyline class="st2" points="58.9,23.9 72.7,23.9 72.7,37.6 		"/>
	</g>
	<g>
		<line class="st2" x1="39.5" y1="57.1" x2="24.1" y2="72.5"/>
		<polyline class="st2" points="37.9,72.5 24.1,72.5 24.1,58.7 		"/>
	</g>
</g>
</svg>
