<?xml version="1.0" encoding="utf-8"?>
<!-- Generator: Adobe Illustrator 19.0.0, SVG Export Plug-In . SVG Version: 6.00 Build 0)  -->
<svg version="1.1" id="图层_1" xmlns="http://www.w3.org/2000/svg" xmlns:xlink="http://www.w3.org/1999/xlink" x="0px" y="0px"
	 viewBox="0 0 96 96" style="enable-background:new 0 0 96 96;" xml:space="preserve">
<style type="text/css">
	.st0{opacity:0.7;}
	.st1{fill:#040000;stroke:#000000;stroke-width:4;stroke-miterlimit:10;}
	.st2{stroke:#000000;stroke-width:4;}
	.st3{font-family:'AmericanTypewriter';}
	.st4{font-size:49.959px;}
	.st5{fill:#FFFFFF;}
</style>
<g class="st0">
	<g>
		<g>
			<path class="st1" d="M48,84.6c-20.2,0-36.6-16.4-36.6-36.6c0-20.2,16.4-36.6,36.6-36.6c20.2,0,36.6,16.4,36.6,36.6
				C84.6,68.2,68.2,84.6,48,84.6L48,84.6z M48,13c-19.3,0-35,15.7-35,35c0,19.3,15.7,35,35,35c19.3,0,35-15.7,35-35
				C83,28.7,67.3,13,48,13L48,13z"/>
		</g>
	</g>
	<text transform="matrix(1 0 0 1 40.5279 64.4379)" class="st2 st3 st4">i</text>
</g>
<g>
	<g>
		<g>
			<path class="st5" d="M48,84.6c-20.2,0-36.6-16.4-36.6-36.6c0-20.2,16.4-36.6,36.6-36.6c20.2,0,36.6,16.4,36.6,36.6
				C84.6,68.2,68.2,84.6,48,84.6L48,84.6z M48,13c-19.3,0-35,15.7-35,35c0,19.3,15.7,35,35,35c19.3,0,35-15.7,35-35
				C83,28.7,67.3,13,48,13L48,13z"/>
		</g>
	</g>
	<text transform="matrix(1 0 0 1 40.5279 64.4379)" class="st5 st3 st4">i</text>
</g>
</svg>
