<?xml version="1.0" encoding="utf-8"?>
<!-- Generator: Adobe Illustrator 19.0.0, SVG Export Plug-In . SVG Version: 6.00 Build 0)  -->
<svg version="1.1" id="图层_1" xmlns="http://www.w3.org/2000/svg" xmlns:xlink="http://www.w3.org/1999/xlink" x="0px" y="0px"
	 viewBox="-431 433 96 96" style="enable-background:new -431 433 96 96;" xml:space="preserve">
<style type="text/css">
	.st0{opacity:0.7;fill:none;stroke:#000000;stroke-width:6;stroke-miterlimit:10;enable-background:new    ;}
	.st1{fill:none;stroke:#FFFFFF;stroke-width:2;stroke-miterlimit:10;}
</style>
<g>
	<path class="st0" d="M-356.2,470.3v17.2c0,1.5-0.5,3-2,3h-20.3c-1.5,0-2,0.5-2,2v10.1c0,2.4-3.2,2.6-4.9,0.9l-22.5-22.5
		c-1.1-1-1.1-2.8,0-3.8l22.5-22.5c1.7-1.7,4.9-1,4.9,1.4l-0.3,9.3c0,1.5,0.8,2.9,2.3,2.9h20.2C-356.7,468.3-356.2,468.8-356.2,470.3
		z"/>
	<path class="st1" d="M-356.2,470.3v17.2c0,1.5-0.5,3-2,3h-20.3c-1.5,0-2,0.5-2,2v10.1c0,2.4-3.2,2.6-4.9,0.9l-22.5-22.5
		c-1.1-1-1.1-2.8,0-3.8l22.5-22.5c1.7-1.7,4.9-1,4.9,1.4l-0.3,9.3c0,1.5,0.8,2.9,2.3,2.9h20.2C-356.7,468.3-356.2,468.8-356.2,470.3
		z"/>
</g>
</svg>
