<?xml version="1.0" encoding="utf-8"?>
<!-- Generator: Adobe Illustrator 19.0.0, SVG Export Plug-In . SVG Version: 6.00 Build 0)  -->
<svg version="1.1" id="图层_1" xmlns="http://www.w3.org/2000/svg" xmlns:xlink="http://www.w3.org/1999/xlink" x="0px" y="0px"
	 viewBox="-431 433 96 96" style="enable-background:new -431 433 96 96;" xml:space="preserve">
<style type="text/css">
	.st0{opacity:0.7;}
	.st1{fill:none;stroke:#000000;stroke-width:6;stroke-linecap:round;stroke-miterlimit:10;}
	.st2{fill:none;stroke:#FFFFFF;stroke-width:2;stroke-linecap:round;stroke-miterlimit:10;}
</style>
<g class="st0">
	<path class="st1" d="M-402,492c-2.5-3.6-3.9-7.9-4-12.6c0-0.1,0-10.7,0-10.8"/>
	<path class="st1" d="M-360,468.7c0,0.1,0,10.7,0,10.9c-0.2,12.4-10.4,22.4-23,22.4c-4.8,0-9.3-1.5-13-4"/>
	<line class="st1" x1="-383" y1="502" x2="-383" y2="511.4"/>
	<line class="st1" x1="-394.6" y1="511.8" x2="-371.4" y2="511.8"/>
	<path class="st1" d="M-371,469v11c0,6.7-5.2,11.5-12,11.5c-2.6,0-5-0.8-7-2.1"/>
	<path class="st1" d="M-395,484c-0.1-2.2,0-3.3,0-5v-18c0-6.7,5.2-12,12-12c4.9,0,9.2,2.9,11.2,7"/>
	<line class="st1" x1="-362.8" y1="453.4" x2="-408" y2="505"/>
</g>
<g>
	<path class="st2" d="M-402,491.9c-2.5-3.6-3.9-7.9-4-12.6c0-0.1,0-10.7,0-10.8"/>
	<path class="st2" d="M-360,468.6c0,0.1,0,10.7,0,10.9c-0.2,12.4-10.4,22.4-23,22.4c-4.8,0-9.3-1.5-13-4"/>
	<line class="st2" x1="-383" y1="501.8" x2="-383" y2="511.2"/>
	<line class="st2" x1="-394.6" y1="511.7" x2="-371.4" y2="511.7"/>
	<path class="st2" d="M-371,468.9v11c0,6.7-5.2,11.5-12,11.5c-2.6,0-5-0.8-7-2.1"/>
	<path class="st2" d="M-395,483.9c-0.1-2.2,0-3.3,0-5v-18c0-6.7,5.2-12,12-12c4.9,0,9.2,2.9,11.2,7"/>
	<line class="st2" x1="-362.8" y1="453.2" x2="-408" y2="504.9"/>
</g>
</svg>
