<?xml version="1.0" encoding="utf-8"?>
<!-- Generator: Adobe Illustrator 19.0.0, SVG Export Plug-In . SVG Version: 6.00 Build 0)  -->
<svg version="1.1" id="图层_1" xmlns="http://www.w3.org/2000/svg" xmlns:xlink="http://www.w3.org/1999/xlink" x="0px" y="0px"
	 viewBox="-431 433 96 96" style="enable-background:new -431 433 96 96;" xml:space="preserve">
<style type="text/css">
	.st0{opacity:0.7;fill:none;stroke:#000000;stroke-width:6;stroke-linecap:round;stroke-miterlimit:10;enable-background:new    ;}
	.st1{fill:none;stroke:#FFFFFF;stroke-width:2;stroke-linecap:round;stroke-miterlimit:10;}
</style>
<g>
	<path class="st0" d="M-360,468.1c0,0.1,0,10.7,0,10.9c-0.2,12.4-10.4,22.4-23,22.4s-22.9-10-23-22.5c0-0.1,0-10.7,0-10.8"/>
	<line class="st0" x1="-383" y1="502.1" x2="-383" y2="511.2"/>
	<line class="st0" x1="-394.6" y1="511.2" x2="-371.4" y2="511.2"/>
	<path class="st0" d="M-370.7,478.8c0,6.7-5.5,12.2-12.3,12.2s-12.3-5.5-12.3-12.2v-18.1c0-6.7,5.5-12.2,12.3-12.2
		s12.3,5.5,12.3,12.2V478.8z"/>
</g>
<path class="st1" d="M-360,468.4c0,0.1,0,10.7,0,10.9c-0.2,12.4-10.4,22.4-23,22.4s-22.9-10-23-22.5c0-0.1,0-10.7,0-10.8"/>
<line class="st1" x1="-383" y1="502.3" x2="-383" y2="511.5"/>
<line class="st1" x1="-394.6" y1="511.5" x2="-371.4" y2="511.5"/>
<path class="st1" d="M-370.7,479.1c0,6.7-5.5,12.2-12.3,12.2s-12.3-5.5-12.3-12.2V461c0-6.7,5.5-12.2,12.3-12.2s12.3,5.5,12.3,12.2
	V479.1z"/>
</svg>
