<?xml version="1.0" encoding="utf-8"?>
<!-- Generator: Adobe Illustrator 19.0.0, SVG Export Plug-In . SVG Version: 6.00 Build 0)  -->
<svg version="1.1" id="图层_1" xmlns="http://www.w3.org/2000/svg" xmlns:xlink="http://www.w3.org/1999/xlink" x="0px" y="0px"
	 viewBox="0 0 96 96" style="enable-background:new 0 0 96 96;" xml:space="preserve">
<style type="text/css">
	.st0{opacity:0.7;}
	.st1{fill:none;stroke:#000000;stroke-width:6;stroke-linecap:round;stroke-linejoin:round;stroke-miterlimit:10;}
	.st2{fill:none;stroke:#FFFFFF;stroke-width:1.5;stroke-linecap:round;stroke-linejoin:round;stroke-miterlimit:10;}
</style>
<g class="st0">
	<g>
		<line class="st1" x1="72.8" y1="72.4" x2="57.4" y2="57"/>
		<polyline class="st1" points="57.4,70.8 57.4,57 71.2,57 		"/>
	</g>
	<g>
		<line class="st1" x1="24.2" y1="23.8" x2="39.6" y2="39.2"/>
		<polyline class="st1" points="39.6,25.4 39.6,39.2 25.8,39.2 		"/>
	</g>
	<g>
		<line class="st1" x1="72.8" y1="23.8" x2="57.4" y2="39.2"/>
		<polyline class="st1" points="71.2,39.2 57.4,39.2 57.4,25.4 		"/>
	</g>
	<g>
		<line class="st1" x1="24.2" y1="72.4" x2="39.6" y2="57"/>
		<polyline class="st1" points="25.8,57 39.6,57 39.6,70.8 		"/>
	</g>
</g>
<g>
	<g>
		<line class="st2" x1="72.8" y1="72.4" x2="57.4" y2="57"/>
		<polyline class="st2" points="57.4,70.8 57.4,57 71.2,57 		"/>
	</g>
	<g>
		<line class="st2" x1="24.2" y1="23.8" x2="39.6" y2="39.2"/>
		<polyline class="st2" points="39.6,25.4 39.6,39.2 25.8,39.2 		"/>
	</g>
	<g>
		<line class="st2" x1="72.8" y1="23.8" x2="57.4" y2="39.2"/>
		<polyline class="st2" points="71.2,39.2 57.4,39.2 57.4,25.4 		"/>
	</g>
	<g>
		<line class="st2" x1="24.2" y1="72.4" x2="39.6" y2="57"/>
		<polyline class="st2" points="25.8,57 39.6,57 39.6,70.8 		"/>
	</g>
</g>
</svg>
