<?xml version="1.0" encoding="utf-8"?>
<!-- Generator: Adobe Illustrator 19.0.0, SVG Export Plug-In . SVG Version: 6.00 Build 0)  -->
<svg version="1.1" id="图层_1" xmlns="http://www.w3.org/2000/svg" xmlns:xlink="http://www.w3.org/1999/xlink" x="0px" y="0px"
	 viewBox="0 0 96 96" style="enable-background:new 0 0 96 96;" xml:space="preserve">
<style type="text/css">
	.st0{opacity:0.7;fill:none;stroke:#000000;stroke-width:6;stroke-linecap:round;stroke-linejoin:round;stroke-miterlimit:10;}
	.st1{fill:none;stroke:#FFFFFF;stroke-width:2;stroke-linecap:round;stroke-linejoin:round;stroke-miterlimit:10;}
</style>
<path class="st0" d="M19.8,53.5l14.9-9.1L41,56.5c0.4,0.8,1.5,0.7,1.8-0.1c1.6-4.6,7.1-13.3,13-21c5.6-7.3,17.3-15.5,17.3-15.5
	C72.6,20.3,74.2,40,74.2,40S60.7,47,54,56.4S43.2,73.7,43.2,73.7S28.2,53.5,19.8,53.5z"/>
<path class="st1" d="M19.8,53.5l14.9-9.1L41,56.5c0.4,0.8,1.5,0.7,1.8-0.1c1.6-4.6,7.1-13.3,13-21c5.6-7.3,17.3-15.5,17.3-15.5
	C72.6,20.3,74.2,40,74.2,40S60.7,47,54,56.4S43.2,73.7,43.2,73.7S28.2,53.5,19.8,53.5z"/>
</svg>
