<?xml version="1.0" encoding="utf-8"?>
<!-- Generator: Adobe Illustrator 19.0.0, SVG Export Plug-In . SVG Version: 6.00 Build 0)  -->
<svg version="1.1" id="图层_1" xmlns="http://www.w3.org/2000/svg" xmlns:xlink="http://www.w3.org/1999/xlink" x="0px" y="0px"
	 viewBox="0 0 96 96" style="enable-background:new 0 0 96 96;" xml:space="preserve">
<style type="text/css">
	.st0{opacity:0.7;}
	.st1{fill:none;stroke:#231F20;stroke-width:6;stroke-linecap:round;stroke-linejoin:round;stroke-miterlimit:10;}
	.st2{fill:none;stroke:#FFFFFF;stroke-width:2;stroke-linecap:round;stroke-linejoin:round;stroke-miterlimit:10;}
</style>
<g class="st0">
	<path class="st1" d="M41.5,69.2h-6.1c-1,0-1.8-0.8-1.8-1.8V32.6c0-1,0.8-1.8,1.8-1.8h6.1c1,0,1.8,0.8,1.8,1.8v34.9
		C43.3,68.4,42.5,69.2,41.5,69.2z"/>
	<path class="st1" d="M60,69.2h-6.1c-1,0-1.8-0.8-1.8-1.8V32.6c0-1,0.8-1.8,1.8-1.8H60c1,0,1.8,0.8,1.8,1.8v34.9
		C61.8,68.4,61,69.2,60,69.2z"/>
</g>
<g>
	<path class="st2" d="M41.5,69.2h-6.1c-1,0-1.8-0.8-1.8-1.8V32.6c0-1,0.8-1.8,1.8-1.8h6.1c1,0,1.8,0.8,1.8,1.8v34.9
		C43.3,68.4,42.5,69.2,41.5,69.2z"/>
	<path class="st2" d="M60,69.2h-6.1c-1,0-1.8-0.8-1.8-1.8V32.6c0-1,0.8-1.8,1.8-1.8H60c1,0,1.8,0.8,1.8,1.8v34.9
		C61.8,68.4,61,69.2,60,69.2z"/>
</g>
</svg>
