<?xml version="1.0" encoding="utf-8"?>
<!-- Generator: Adobe Illustrator 19.0.0, SVG Export Plug-In . SVG Version: 6.00 Build 0)  -->
<svg version="1.1" id="图层_1" xmlns="http://www.w3.org/2000/svg" xmlns:xlink="http://www.w3.org/1999/xlink" x="0px" y="0px"
	 viewBox="0 0 96 96" style="enable-background:new 0 0 96 96;" xml:space="preserve">
<style type="text/css">
	.st0{opacity:0.7;fill-rule:evenodd;clip-rule:evenodd;stroke:#000000;stroke-width:5;stroke-miterlimit:10;}
	.st1{fill-rule:evenodd;clip-rule:evenodd;fill:#FFFFFF;}
</style>
<path class="st0" d="M59.5,58.5c0-4.4,6.2-12,11.8-17.5l1.6,1.6c1.7,1.7,4.4,1.7,6.1,0c1.7-1.7,1.7-4.4,0-6.1L62.8,20.3
	c-0.8-0.8-1.9-1.3-3-1.3c-1.1,0-2.2,0.5-3,1.3c-1.7,1.7-1.7,4.4,0,6.1l1.5,1.5C52,34,44.4,39.9,40.7,39.6
	c-7.1-0.5-10.7,8.8-10.9,9.2c-0.2,0.4-0.1,0.9,0.2,1.2l8.5,8.5L24.9,72.2c-0.4,0.4-0.4,1.1,0,1.6c0.4,0.4,1.1,0.4,1.6,0L40.1,60l9,9
	c0.3,0.3,0.7,0.4,1.1,0.3C50.6,69.2,59.5,66.3,59.5,58.5 M50.2,67l-18-18c0.9-1.9,3.9-7.4,8.4-7.1c6.1,0.4,16.8-10,19.9-13.2
	c0.4-0.4,0.4-1.1,0-1.5l-2.3-2.3c-0.8-0.8-0.8-2.1,0-3c0.4-0.4,0.9-0.6,1.5-0.6c0.6,0,1.1,0.2,1.5,0.6L77.4,38c0.8,0.8,0.8,2.2,0,3
	c-0.8,0.8-2.2,0.8-3,0L72,38.6c-0.4-0.4-1.1-0.4-1.5,0c-3.1,3-13.2,13.2-13.2,19.9C57.3,63.6,52,66.2,50.2,67"/>
<path class="st1" d="M59.5,58.5c0-4.4,6.2-12,11.8-17.5l1.6,1.6c1.7,1.7,4.4,1.7,6.1,0c1.7-1.7,1.7-4.4,0-6.1L62.8,20.3
	c-0.8-0.8-1.9-1.3-3-1.3c-1.1,0-2.2,0.5-3,1.3c-1.7,1.7-1.7,4.4,0,6.1l1.5,1.5C52,34,44.4,39.9,40.7,39.6
	c-7.1-0.5-10.7,8.8-10.9,9.2c-0.2,0.4-0.1,0.9,0.2,1.2l8.5,8.5L24.9,72.2c-0.4,0.4-0.4,1.1,0,1.6c0.4,0.4,1.1,0.4,1.6,0L40.1,60l9,9
	c0.3,0.3,0.7,0.4,1.1,0.3C50.6,69.2,59.5,66.3,59.5,58.5 M50.2,67l-18-18c0.9-1.9,3.9-7.4,8.4-7.1c6.1,0.4,16.8-10,19.9-13.2
	c0.4-0.4,0.4-1.1,0-1.5l-2.3-2.3c-0.8-0.8-0.8-2.1,0-3c0.4-0.4,0.9-0.6,1.5-0.6c0.6,0,1.1,0.2,1.5,0.6L77.4,38c0.8,0.8,0.8,2.2,0,3
	c-0.8,0.8-2.2,0.8-3,0L72,38.6c-0.4-0.4-1.1-0.4-1.5,0c-3.1,3-13.2,13.2-13.2,19.9C57.3,63.6,52,66.2,50.2,67"/>
</svg>
