<?xml version="1.0" encoding="utf-8"?>
<!-- Generator: Adobe Illustrator 19.0.0, SVG Export Plug-In . SVG Version: 6.00 Build 0)  -->
<svg version="1.1" id="图层_1" xmlns="http://www.w3.org/2000/svg" xmlns:xlink="http://www.w3.org/1999/xlink" x="0px" y="0px"
	 viewBox="0 0 96 96" style="enable-background:new 0 0 96 96;" xml:space="preserve">
<style type="text/css">
	.st0{opacity:0.7;fill-rule:evenodd;clip-rule:evenodd;stroke:#000000;stroke-width:5;stroke-miterlimit:10;}
	.st1{fill-rule:evenodd;clip-rule:evenodd;fill:#FFFFFF;}
</style>
<path class="st0" d="M61.2,48.2c-3.1-3.1-4.1-12.9-4.1-20.7l2.2,0c2.4,0,4.3-1.9,4.3-4.3c0-2.4-1.9-4.3-4.3-4.3l-22.9,0
	c-1.2,0-2.2,0.4-3,1.3c-0.8,0.8-1.3,1.9-1.3,3c0,2.4,1.9,4.3,4.3,4.3h2.1c0,8.7-1.2,18.3-4,20.7c-5.3,4.6-1.4,13.8-1.2,14.2
	c0.2,0.4,0.6,0.7,1,0.7l12,0v19.4c0,0.6,0.5,1.1,1.1,1.1c0.6,0,1.1-0.5,1.1-1.1V63l12.7,0c0.4,0,0.8-0.2,1-0.6
	C62.6,62.1,66.8,53.7,61.2,48.2 M60.7,60.8l-25.5,0c-0.7-2-2.5-8,0.9-11c4.6-4,4.8-19,4.7-23.5c0-0.6-0.5-1.1-1.1-1.1h-3.2
	c-1.2,0-2.1-0.9-2.1-2.1c0-0.6,0.2-1.1,0.6-1.5c0.4-0.4,0.9-0.6,1.5-0.6l22.9,0c1.2,0,2.1,0.9,2.1,2.1c0,1.2-0.9,2.1-2.1,2.1l-3.3,0
	c-0.6,0-1.1,0.5-1.1,1.1c-0.1,4.3,0,18.7,4.7,23.4C63.3,53.4,61.5,59,60.7,60.8"/>
<path class="st1" d="M61.2,48.2c-3.1-3.1-4.1-12.9-4.1-20.7l2.2,0c2.4,0,4.3-1.9,4.3-4.3c0-2.4-1.9-4.3-4.3-4.3l-22.9,0
	c-1.2,0-2.2,0.4-3,1.3c-0.8,0.8-1.3,1.9-1.3,3c0,2.4,1.9,4.3,4.3,4.3h2.1c0,8.7-1.2,18.3-4,20.7c-5.3,4.6-1.4,13.8-1.2,14.2
	c0.2,0.4,0.6,0.7,1,0.7l12,0v19.4c0,0.6,0.5,1.1,1.1,1.1c0.6,0,1.1-0.5,1.1-1.1V63l12.7,0c0.4,0,0.8-0.2,1-0.6
	C62.6,62.1,66.8,53.7,61.2,48.2 M60.7,60.8l-25.5,0c-0.7-2-2.5-8,0.9-11c4.6-4,4.8-19,4.7-23.5c0-0.6-0.5-1.1-1.1-1.1h-3.2
	c-1.2,0-2.1-0.9-2.1-2.1c0-0.6,0.2-1.1,0.6-1.5c0.4-0.4,0.9-0.6,1.5-0.6l22.9,0c1.2,0,2.1,0.9,2.1,2.1c0,1.2-0.9,2.1-2.1,2.1l-3.3,0
	c-0.6,0-1.1,0.5-1.1,1.1c-0.1,4.3,0,18.7,4.7,23.4C63.3,53.4,61.5,59,60.7,60.8"/>
</svg>
