<?xml version="1.0" encoding="utf-8"?>
<!-- Generator: Adobe Illustrator 19.0.0, SVG Export Plug-In . SVG Version: 6.00 Build 0)  -->
<svg version="1.1" id="图层_1" xmlns="http://www.w3.org/2000/svg" xmlns:xlink="http://www.w3.org/1999/xlink" x="0px" y="0px"
	 viewBox="-431 433 96 96" style="enable-background:new -431 433 96 96;" xml:space="preserve">
<style type="text/css">
	.st0{opacity:0.7;}
	.st1{fill:#040000;stroke:#000000;stroke-width:3;stroke-miterlimit:10;}
	.st2{fill:#FFFEFF;}
	.st3{opacity:0.7;fill:#FFFFFF;enable-background:new    ;}
	.st4{font-family:'MicrosoftYaHei';}
	.st5{font-size:31.0934px;}
	.st6{opacity:0.7;fill:none;stroke:#000000;stroke-width:3;stroke-linecap:round;stroke-linejoin:round;enable-background:new    ;}
	.st7{fill:#FFFFFF;}
</style>
<g>
	<g class="st0">
		<g>
			<g>
				<path class="st1" d="M-382.7,517.7c-20.2,0-36.6-16.4-36.6-36.6s16.4-36.6,36.6-36.6s36.6,16.4,36.6,36.6
					C-346.1,501.2-362.5,517.7-382.7,517.7L-382.7,517.7z M-382.7,446.1c-19.3,0-35,15.7-35,35s15.7,35,35,35s35-15.7,35-35
					S-363.4,446.1-382.7,446.1L-382.7,446.1z"/>
			</g>
		</g>
	</g>
	<g>
		<g>
			<g>
				<path class="st2" d="M-382.7,517.7c-20.2,0-36.6-16.4-36.6-36.6s16.4-36.6,36.6-36.6s36.6,16.4,36.6,36.6
					C-346.1,501.2-362.5,517.7-382.7,517.7L-382.7,517.7z M-382.7,446.1c-19.3,0-35,15.7-35,35s15.7,35,35,35s35-15.7,35-35
					S-363.4,446.1-382.7,446.1L-382.7,446.1z"/>
			</g>
		</g>
	</g>
</g>
<text transform="matrix(1 0 0 1 -410.5007 494.0235)" class="st3 st4 st5">PTZ</text>
<text transform="matrix(1 0 0 1 -410.5007 494.0235)" class="st6 st4 st5">PTZ</text>
<text transform="matrix(1 0 0 1 -410.5007 494.0233)" class="st7 st4 st5">PTZ</text>
</svg>
