<?xml version="1.0" encoding="utf-8"?>
<!-- Generator: Adobe Illustrator 19.0.0, SVG Export Plug-In . SVG Version: 6.00 Build 0)  -->
<svg version="1.1" id="图层_1" xmlns="http://www.w3.org/2000/svg" xmlns:xlink="http://www.w3.org/1999/xlink" x="0px" y="0px"
	 viewBox="-431 433 96 96" style="enable-background:new -431 433 96 96;" xml:space="preserve">
<style type="text/css">
	.st0{opacity:0.7;fill:none;stroke:#000000;stroke-width:6;stroke-miterlimit:10;enable-background:new    ;}
	.st1{fill:none;stroke:#FFFFFF;stroke-width:2;stroke-miterlimit:10;}
</style>
<g>
	<path class="st0" d="M-408.7,488.2V471c0-1.5,0.5-3,2-3h20.2c1.5,0,2-0.5,2-2v-10.2c0-2.4,3.2-2.6,4.9-0.9l22.6,22.5
		c1.1,1,1.1,2.8,0,3.8l-22.5,22.6c-1.7,1.7-4.9,1-4.9-1.4l0.3-9.3c0-1.5-0.8-2.9-2.3-2.9h-20.3
		C-408.2,490.2-408.7,489.6-408.7,488.2z"/>
	<path class="st1" d="M-408.7,488.2V471c0-1.5,0.5-3,2-3h20.2c1.5,0,2-0.5,2-2v-10.2c0-2.4,3.2-2.6,4.9-0.9l22.6,22.5
		c1.1,1,1.1,2.8,0,3.8l-22.5,22.6c-1.7,1.7-4.9,1-4.9-1.4l0.3-9.3c0-1.5-0.8-2.9-2.3-2.9h-20.3
		C-408.2,490.2-408.7,489.6-408.7,488.2z"/>
</g>
</svg>
