<?xml version="1.0" encoding="utf-8"?>
<!-- Generator: Adobe Illustrator 19.0.0, SVG Export Plug-In . SVG Version: 6.00 Build 0)  -->
<svg version="1.1" id="图层_1" xmlns="http://www.w3.org/2000/svg" xmlns:xlink="http://www.w3.org/1999/xlink" x="0px" y="0px"
	 viewBox="0 0 96 96" style="enable-background:new 0 0 96 96;" xml:space="preserve">
<style type="text/css">
	.st0{opacity:0.7;}
	.st1{fill:#040000;stroke:#231815;stroke-width:4;stroke-miterlimit:10;}
	.st2{fill:#FFFFFF;}
</style>
<g class="st0">
	<g>
		<path class="st1" d="M71.6,30.5H25.1c-0.6,0-1.1-0.5-1.1-1.1c0-0.6,0.5-1.1,1.1-1.1h46.5c0.6,0,1.1,0.5,1.1,1.1
			C72.7,30,72.2,30.5,71.6,30.5L71.6,30.5z"/>
	</g>
	<g>
		<path class="st1" d="M55.2,30.1c-0.7-3.3-3.6-5.6-6.9-5.6c-3.3,0-6.2,2.4-6.9,5.6l-2.2-0.4c0.9-4.3,4.7-7.4,9.1-7.4
			c4.4,0,8.2,3.1,9.1,7.4L55.2,30.1L55.2,30.1z"/>
	</g>
	<g>
		<path class="st1" d="M63.4,73.7H33.2c-1.7,0-3.2-1.5-3.3-3.3l-2.3-38.8c0-0.6,0.4-1.1,1.1-1.2c0.6,0,1.1,0.4,1.2,1.1l2.3,38.8
			c0,0.6,0.5,1.2,1.1,1.2h30.2c0.6,0,1.1-0.5,1.1-1.2l2.3-38.8c0-0.6,0.6-1.1,1.2-1.1c0.6,0,1.1,0.6,1.1,1.2l-2.3,38.8
			C66.6,72.3,65.2,73.7,63.4,73.7L63.4,73.7z"/>
	</g>
	<g>
		<g>
			<path class="st1" d="M39.8,65.5c-0.6,0-1.1-0.5-1.1-1.1l-1.5-26.7c0-0.6,0.4-1.1,1.1-1.2c0.6,0,1.1,0.4,1.2,1.1l1.5,26.7
				C41,65,40.5,65.5,39.8,65.5C39.9,65.5,39.8,65.5,39.8,65.5L39.8,65.5z"/>
		</g>
		<g>
			<path class="st1" d="M56.8,65.5C56.8,65.5,56.8,65.5,56.8,65.5c-0.7,0-1.2-0.6-1.1-1.2l1.5-26.7c0-0.6,0.6-1.1,1.2-1.1
				c0.6,0,1.1,0.6,1.1,1.2l-1.5,26.7C57.9,65.1,57.4,65.5,56.8,65.5L56.8,65.5z"/>
		</g>
	</g>
	<g>
		<path class="st1" d="M48.3,65.5c-0.6,0-1.1-0.5-1.1-1.1V37.7c0-0.6,0.5-1.1,1.1-1.1c0.6,0,1.1,0.5,1.1,1.1v26.7
			C49.4,65,48.9,65.5,48.3,65.5L48.3,65.5z"/>
	</g>
</g>
<g>
	<g>
		<path class="st2" d="M71.6,30.5H25.1c-0.6,0-1.1-0.5-1.1-1.1c0-0.6,0.5-1.1,1.1-1.1h46.5c0.6,0,1.1,0.5,1.1,1.1
			C72.7,30,72.2,30.5,71.6,30.5L71.6,30.5z"/>
	</g>
	<g>
		<path class="st2" d="M55.2,30.1c-0.7-3.3-3.6-5.6-6.9-5.6c-3.3,0-6.2,2.4-6.9,5.6l-2.2-0.4c0.9-4.3,4.7-7.4,9.1-7.4
			c4.4,0,8.2,3.1,9.1,7.4L55.2,30.1L55.2,30.1z"/>
	</g>
	<g>
		<path class="st2" d="M63.4,73.7H33.2c-1.7,0-3.2-1.5-3.3-3.3l-2.3-38.8c0-0.6,0.4-1.1,1.1-1.2c0.6,0,1.1,0.4,1.2,1.1l2.3,38.8
			c0,0.6,0.5,1.2,1.1,1.2h30.2c0.6,0,1.1-0.5,1.1-1.2l2.3-38.8c0-0.6,0.6-1.1,1.2-1.1c0.6,0,1.1,0.6,1.1,1.2l-2.3,38.8
			C66.6,72.3,65.2,73.7,63.4,73.7L63.4,73.7z"/>
	</g>
	<g>
		<g>
			<path class="st2" d="M39.8,65.5c-0.6,0-1.1-0.5-1.1-1.1l-1.5-26.7c0-0.6,0.4-1.1,1.1-1.2c0.6,0,1.1,0.4,1.2,1.1l1.5,26.7
				C41,65,40.5,65.5,39.8,65.5C39.9,65.5,39.8,65.5,39.8,65.5L39.8,65.5z"/>
		</g>
		<g>
			<path class="st2" d="M56.8,65.5C56.8,65.5,56.8,65.5,56.8,65.5c-0.7,0-1.2-0.6-1.1-1.2l1.5-26.7c0-0.6,0.6-1.1,1.2-1.1
				c0.6,0,1.1,0.6,1.1,1.2l-1.5,26.7C57.9,65.1,57.4,65.5,56.8,65.5L56.8,65.5z"/>
		</g>
	</g>
	<g>
		<path class="st2" d="M48.3,65.5c-0.6,0-1.1-0.5-1.1-1.1V37.7c0-0.6,0.5-1.1,1.1-1.1c0.6,0,1.1,0.5,1.1,1.1v26.7
			C49.4,65,48.9,65.5,48.3,65.5L48.3,65.5z"/>
	</g>
</g>
</svg>
