<?xml version="1.0" encoding="utf-8"?>
<!-- Generator: Adobe Illustrator 19.0.0, SVG Export Plug-In . SVG Version: 6.00 Build 0)  -->
<svg version="1.1" id="图层_1" xmlns="http://www.w3.org/2000/svg" xmlns:xlink="http://www.w3.org/1999/xlink" x="0px" y="0px"
	 viewBox="-431 433 96 96" style="enable-background:new -431 433 96 96;" xml:space="preserve">
<style type="text/css">
	.st0{opacity:0.7;}
	.st1{fill:#040000;stroke:#000000;stroke-width:4;stroke-miterlimit:10;}
	.st2{fill:#FFFFFF;}
</style>
<g class="st0">
	<path class="st1" d="M-359.8,506.6L-359.8,506.6c-0.6,0-1-0.4-1.1-0.9c-2.3-19.5-15.4-23.9-23.8-24.8v9.9c0,0.4-0.2,0.8-0.6,1
		c-0.4,0.2-0.8,0.1-1.1-0.1l-21.9-17.2c-0.3-0.2-0.4-0.5-0.4-0.9c0-0.3,0.2-0.6,0.4-0.9l21.9-17.2c0.3-0.3,0.8-0.3,1.1-0.1
		c0.4,0.2,0.6,0.6,0.6,1v8.4c10.3,1.5,17.8,5.5,22.3,12.1c5,7.1,6.3,17.2,3.7,28.4l-0.1,0.4C-358.8,506.2-359.2,506.6-359.8,506.6
		L-359.8,506.6z M-385.7,478.7L-385.7,478.7c6.6,0.4,21.3,3.4,25.9,20.8c1-8.4-0.5-15.8-4.3-21.3c-4.3-6.2-11.6-10-21.8-11.3
		c-0.5-0.1-1-0.5-1-1.1v-7.1l-19,14.9l19,14.9v-8.8c0-0.3,0.1-0.6,0.3-0.8C-386.3,478.8-386,478.7-385.7,478.7L-385.7,478.7z"/>
</g>
<g>
	<path class="st2" d="M-359.8,506.6L-359.8,506.6c-0.6,0-1-0.4-1.1-0.9c-2.3-19.5-15.4-23.9-23.8-24.8v9.9c0,0.4-0.2,0.8-0.6,1
		c-0.4,0.2-0.8,0.1-1.1-0.1l-21.9-17.2c-0.3-0.2-0.4-0.5-0.4-0.9c0-0.3,0.2-0.6,0.4-0.9l21.9-17.2c0.3-0.3,0.8-0.3,1.1-0.1
		c0.4,0.2,0.6,0.6,0.6,1v8.4c10.3,1.5,17.8,5.5,22.3,12.1c5,7.1,6.3,17.2,3.7,28.4l-0.1,0.4C-358.8,506.2-359.2,506.6-359.8,506.6
		L-359.8,506.6z M-385.7,478.7L-385.7,478.7c6.6,0.4,21.3,3.4,25.9,20.8c1-8.4-0.5-15.8-4.3-21.3c-4.3-6.2-11.6-10-21.8-11.3
		c-0.5-0.1-1-0.5-1-1.1v-7.1l-19,14.9l19,14.9v-8.8c0-0.3,0.1-0.6,0.3-0.8C-386.3,478.8-386,478.7-385.7,478.7L-385.7,478.7z"/>
</g>
</svg>
