<?xml version="1.0" encoding="utf-8"?>
<!-- Generator: Adobe Illustrator 19.0.0, SVG Export Plug-In . SVG Version: 6.00 Build 0)  -->
<svg version="1.1" id="图层_1" xmlns="http://www.w3.org/2000/svg" xmlns:xlink="http://www.w3.org/1999/xlink" x="0px" y="0px"
	 viewBox="-431 433 96 96" style="enable-background:new -431 433 96 96;" xml:space="preserve">
<style type="text/css">
	.st0{opacity:0.7;fill:none;stroke:#000000;stroke-width:6;stroke-miterlimit:10;enable-background:new    ;}
	.st1{fill:none;stroke:#FFFFFF;stroke-width:2;stroke-miterlimit:10;}
</style>
<g>
	<path class="st0" d="M-373.5,505.5h-17.2c-1.5,0-3-0.5-3-2v-20.3c0-1.5-0.5-2-2-2h-10.2c-2.4,0-2.6-3.2-0.9-4.9l22.5-22.5
		c1-1.1,2.8-1.1,3.8,0l22.5,22.5c1.7,1.7,1,4.9-1.4,4.9l-9.3-0.3c-1.5,0-2.9,0.8-2.9,2.3v20.2C-371.5,504.9-372,505.5-373.5,505.5z"
		/>
	<path class="st1" d="M-373.5,505.5h-17.2c-1.5,0-3-0.5-3-2v-20.3c0-1.5-0.5-2-2-2h-10.2c-2.4,0-2.6-3.2-0.9-4.9l22.5-22.5
		c1-1.1,2.8-1.1,3.8,0l22.5,22.5c1.7,1.7,1,4.9-1.4,4.9l-9.3-0.3c-1.5,0-2.9,0.8-2.9,2.3v20.2C-371.5,504.9-372,505.5-373.5,505.5z"
		/>
</g>
</svg>
