<?xml version="1.0" encoding="utf-8"?>
<!-- Generator: Adobe Illustrator 19.0.0, SVG Export Plug-In . SVG Version: 6.00 Build 0)  -->
<svg version="1.1" id="图层_1" xmlns="http://www.w3.org/2000/svg" xmlns:xlink="http://www.w3.org/1999/xlink" x="0px" y="0px"
	 viewBox="-431 433 96 96" style="enable-background:new -431 433 96 96;" xml:space="preserve">
<style type="text/css">
	.st0{opacity:0.7;fill:none;stroke:#000000;stroke-width:6;stroke-linecap:round;stroke-miterlimit:10;enable-background:new    ;}
	.st1{fill:none;stroke:#FFFFFF;stroke-width:2;stroke-linecap:round;stroke-miterlimit:10;}
</style>
<path class="st0" d="M-411,480.9v-9.5c0-1.4,1.1-2.5,2.5-2.5h8.5c0.7,0,1.3-0.3,1.8-0.7l13-13c1.6-1.6,4.2-0.5,4.2,1.8v24v24
	c0,2.2-2.7,3.3-4.2,1.8l-13-13c-0.5-0.6-1.2-0.9-1.8-0.9h-8.5c-1.4,0-2.5-1.1-2.5-2.5V480.9z"/>
<path class="st0" d="M-373,490.9c5.5,0,10-4.5,10-10s-4.5-10-10-10"/>
<path class="st0" d="M-373,460.9c11,0,20,9,20,20s-9,20-20,20"/>
<path class="st1" d="M-411,480.9v-9.5c0-1.4,1.1-2.5,2.5-2.5h8.5c0.7,0,1.3-0.3,1.8-0.7l13-13c1.6-1.6,4.2-0.5,4.2,1.8v24v24
	c0,2.2-2.7,3.3-4.2,1.8l-13-13c-0.5-0.6-1.2-0.9-1.8-0.9h-8.5c-1.4,0-2.5-1.1-2.5-2.5V480.9z"/>
<path class="st1" d="M-373,490.9c5.5,0,10-4.5,10-10s-4.5-10-10-10"/>
<path class="st1" d="M-373,460.9c11,0,20,9,20,20s-9,20-20,20"/>
</svg>
