<?xml version="1.0" encoding="utf-8"?>
<!-- Generator: Adobe Illustrator 19.0.0, SVG Export Plug-In . SVG Version: 6.00 Build 0)  -->
<svg version="1.1" id="图层_1" xmlns="http://www.w3.org/2000/svg" xmlns:xlink="http://www.w3.org/1999/xlink" x="0px" y="0px"
	 viewBox="0 0 96 96" style="enable-background:new 0 0 96 96;" xml:space="preserve">
<style type="text/css">
	.st0{opacity:0.7;}
	.st1{fill:none;stroke:#000000;stroke-width:6;stroke-miterlimit:10;}
	.st2{fill:none;stroke:#000000;stroke-width:6;stroke-linecap:round;stroke-miterlimit:10;}
	.st3{fill:none;stroke:#FFFFFF;stroke-width:2;stroke-miterlimit:10;}
	.st4{fill:none;stroke:#FFFFFF;stroke-width:2;stroke-linecap:round;stroke-miterlimit:10;}
</style>
<g class="st0">
	<path class="st1" d="M43.5,19.8c-6.2,0-12,2.4-16.4,6.8c-9.1,9.1-9.1,23.8,0,32.9c4.4,4.4,10.2,6.8,16.4,6.8s12-2.4,16.4-6.8
		c9.1-9.1,9.1-23.8,0-32.9C55.6,22.2,49.7,19.8,43.5,19.8z"/>
	<line class="st2" x1="60.2" y1="59.8" x2="80.6" y2="80.3"/>
	<line class="st2" x1="35.3" y1="43.3" x2="51.3" y2="43.3"/>
	<line class="st2" x1="43.3" y1="51.3" x2="43.3" y2="35.3"/>
</g>
<g>
	<path class="st3" d="M43.5,19.8c-6.2,0-12,2.4-16.4,6.8c-9.1,9.1-9.1,23.8,0,32.9c4.4,4.4,10.2,6.8,16.4,6.8s12-2.4,16.4-6.8
		c9.1-9.1,9.1-23.8,0-32.9C55.6,22.2,49.7,19.8,43.5,19.8z"/>
	<line class="st4" x1="60.2" y1="59.8" x2="80.6" y2="80.3"/>
	<line class="st4" x1="35.3" y1="43.3" x2="51.3" y2="43.3"/>
	<line class="st4" x1="43.3" y1="51.3" x2="43.3" y2="35.3"/>
</g>
</svg>
